<mxfile host="app.diagrams.net" modified="2024-03-10T13:02:31.475Z" agent="Mozilla/5.0 (Windows NT 10.0; Win64; x64) AppleWebKit/537.36 (KHTML, like Gecko) Chrome/120.0.0.0 YaBrowser/24.1.0.0 Safari/537.36" etag="GdAb6exTS1bWrSvYv7R6" version="24.0.4" type="device">
  <diagram name="Страница — 1" id="kBhjqod2G113rZmFGh_g">
    <mxGraphModel dx="1386" dy="767" grid="1" gridSize="10" guides="1" tooltips="1" connect="1" arrows="1" fold="1" page="1" pageScale="1" pageWidth="827" pageHeight="1169" math="0" shadow="0">
      <root>
        <mxCell id="0" />
        <mxCell id="1" parent="0" />
        <mxCell id="bVqmNA81sOdPXcJcWzYU-15" style="edgeStyle=orthogonalEdgeStyle;rounded=0;orthogonalLoop=1;jettySize=auto;html=1;exitX=0.5;exitY=1;exitDx=0;exitDy=0;entryX=0.5;entryY=0;entryDx=0;entryDy=0;" edge="1" parent="1" source="bVqmNA81sOdPXcJcWzYU-1" target="bVqmNA81sOdPXcJcWzYU-3">
          <mxGeometry relative="1" as="geometry" />
        </mxCell>
        <mxCell id="bVqmNA81sOdPXcJcWzYU-1" value="Начало" style="ellipse;whiteSpace=wrap;html=1;" vertex="1" parent="1">
          <mxGeometry x="110" y="10" width="120" height="80" as="geometry" />
        </mxCell>
        <mxCell id="bVqmNA81sOdPXcJcWzYU-3" value="newArray [n]&lt;div&gt;m=0&lt;/div&gt;" style="shape=parallelogram;perimeter=parallelogramPerimeter;whiteSpace=wrap;html=1;fixedSize=1;" vertex="1" parent="1">
          <mxGeometry x="110" y="140" width="120" height="60" as="geometry" />
        </mxCell>
        <mxCell id="bVqmNA81sOdPXcJcWzYU-21" style="edgeStyle=orthogonalEdgeStyle;rounded=0;orthogonalLoop=1;jettySize=auto;html=1;exitX=0.5;exitY=1;exitDx=0;exitDy=0;entryX=0.5;entryY=0;entryDx=0;entryDy=0;" edge="1" parent="1" source="bVqmNA81sOdPXcJcWzYU-4" target="bVqmNA81sOdPXcJcWzYU-6">
          <mxGeometry relative="1" as="geometry" />
        </mxCell>
        <mxCell id="bVqmNA81sOdPXcJcWzYU-23" style="edgeStyle=orthogonalEdgeStyle;rounded=0;orthogonalLoop=1;jettySize=auto;html=1;exitX=0;exitY=0.5;exitDx=0;exitDy=0;" edge="1" parent="1" source="bVqmNA81sOdPXcJcWzYU-4">
          <mxGeometry relative="1" as="geometry">
            <mxPoint x="120" y="280" as="targetPoint" />
            <Array as="points">
              <mxPoint x="28" y="415" />
              <mxPoint x="28" y="280" />
            </Array>
          </mxGeometry>
        </mxCell>
        <mxCell id="bVqmNA81sOdPXcJcWzYU-4" value="&lt;div style=&quot;color: rgb(212, 212, 212); background-color: rgb(30, 30, 30); font-family: Consolas, &amp;quot;Courier New&amp;quot;, monospace; font-size: 14px; line-height: 19px; white-space: pre;&quot;&gt;&lt;span style=&quot;color: #9cdcfe;&quot;&gt;newArray&lt;/span&gt;[&lt;span style=&quot;color: #9cdcfe;&quot;&gt;i&lt;/span&gt;].Length &amp;lt;= &lt;span style=&quot;color: #b5cea8;&quot;&gt;3&lt;/span&gt;&lt;/div&gt;" style="rhombus;whiteSpace=wrap;html=1;" vertex="1" parent="1">
          <mxGeometry x="47.5" y="360" width="245" height="110" as="geometry" />
        </mxCell>
        <mxCell id="bVqmNA81sOdPXcJcWzYU-22" style="edgeStyle=orthogonalEdgeStyle;rounded=0;orthogonalLoop=1;jettySize=auto;html=1;exitX=0;exitY=0.5;exitDx=0;exitDy=0;entryX=0;entryY=0.5;entryDx=0;entryDy=0;" edge="1" parent="1" source="bVqmNA81sOdPXcJcWzYU-6" target="bVqmNA81sOdPXcJcWzYU-7">
          <mxGeometry relative="1" as="geometry">
            <Array as="points">
              <mxPoint x="20" y="555" />
              <mxPoint x="20" y="280" />
            </Array>
          </mxGeometry>
        </mxCell>
        <mxCell id="bVqmNA81sOdPXcJcWzYU-6" value="m=m+1" style="rounded=0;whiteSpace=wrap;html=1;" vertex="1" parent="1">
          <mxGeometry x="110" y="525" width="120" height="60" as="geometry" />
        </mxCell>
        <mxCell id="bVqmNA81sOdPXcJcWzYU-17" style="edgeStyle=orthogonalEdgeStyle;rounded=0;orthogonalLoop=1;jettySize=auto;html=1;exitX=1;exitY=0.5;exitDx=0;exitDy=0;" edge="1" parent="1" source="bVqmNA81sOdPXcJcWzYU-7" target="bVqmNA81sOdPXcJcWzYU-11">
          <mxGeometry relative="1" as="geometry" />
        </mxCell>
        <mxCell id="bVqmNA81sOdPXcJcWzYU-20" style="edgeStyle=orthogonalEdgeStyle;rounded=0;orthogonalLoop=1;jettySize=auto;html=1;exitX=0.5;exitY=1;exitDx=0;exitDy=0;" edge="1" parent="1" source="bVqmNA81sOdPXcJcWzYU-7" target="bVqmNA81sOdPXcJcWzYU-4">
          <mxGeometry relative="1" as="geometry" />
        </mxCell>
        <mxCell id="bVqmNA81sOdPXcJcWzYU-7" value="i=0&lt;div&gt;i&amp;lt;n&lt;/div&gt;&lt;div&gt;i=i+1&lt;/div&gt;" style="rhombus;whiteSpace=wrap;html=1;" vertex="1" parent="1">
          <mxGeometry x="110" y="240" width="120" height="80" as="geometry" />
        </mxCell>
        <mxCell id="bVqmNA81sOdPXcJcWzYU-27" style="edgeStyle=orthogonalEdgeStyle;rounded=0;orthogonalLoop=1;jettySize=auto;html=1;exitX=1;exitY=0.5;exitDx=0;exitDy=0;entryX=1;entryY=0.5;entryDx=0;entryDy=0;" edge="1" parent="1" source="bVqmNA81sOdPXcJcWzYU-9" target="bVqmNA81sOdPXcJcWzYU-14">
          <mxGeometry relative="1" as="geometry">
            <Array as="points">
              <mxPoint x="800" y="280" />
              <mxPoint x="800" y="680" />
            </Array>
          </mxGeometry>
        </mxCell>
        <mxCell id="bVqmNA81sOdPXcJcWzYU-28" style="edgeStyle=orthogonalEdgeStyle;rounded=0;orthogonalLoop=1;jettySize=auto;html=1;exitX=0.5;exitY=1;exitDx=0;exitDy=0;entryX=0.5;entryY=0;entryDx=0;entryDy=0;" edge="1" parent="1" source="bVqmNA81sOdPXcJcWzYU-9" target="bVqmNA81sOdPXcJcWzYU-10">
          <mxGeometry relative="1" as="geometry" />
        </mxCell>
        <mxCell id="bVqmNA81sOdPXcJcWzYU-9" value="i=0&lt;div&gt;i&amp;lt;n&lt;/div&gt;&lt;div&gt;i=i+1&lt;/div&gt;" style="rhombus;whiteSpace=wrap;html=1;" vertex="1" parent="1">
          <mxGeometry x="585" y="240" width="120" height="80" as="geometry" />
        </mxCell>
        <mxCell id="bVqmNA81sOdPXcJcWzYU-30" style="edgeStyle=orthogonalEdgeStyle;rounded=0;orthogonalLoop=1;jettySize=auto;html=1;exitX=0.5;exitY=1;exitDx=0;exitDy=0;" edge="1" parent="1" source="bVqmNA81sOdPXcJcWzYU-10" target="bVqmNA81sOdPXcJcWzYU-12">
          <mxGeometry relative="1" as="geometry" />
        </mxCell>
        <mxCell id="bVqmNA81sOdPXcJcWzYU-32" style="edgeStyle=orthogonalEdgeStyle;rounded=0;orthogonalLoop=1;jettySize=auto;html=1;exitX=0;exitY=0.5;exitDx=0;exitDy=0;" edge="1" parent="1" source="bVqmNA81sOdPXcJcWzYU-10">
          <mxGeometry relative="1" as="geometry">
            <mxPoint x="570" y="280" as="targetPoint" />
            <Array as="points">
              <mxPoint x="530" y="280" />
            </Array>
          </mxGeometry>
        </mxCell>
        <mxCell id="bVqmNA81sOdPXcJcWzYU-10" value="&lt;div style=&quot;color: rgb(212, 212, 212); background-color: rgb(30, 30, 30); font-family: Consolas, &amp;quot;Courier New&amp;quot;, monospace; font-size: 14px; line-height: 19px; white-space: pre;&quot;&gt;&lt;span style=&quot;color: #9cdcfe;&quot;&gt;newArray&lt;/span&gt;[&lt;span style=&quot;color: #9cdcfe;&quot;&gt;i&lt;/span&gt;].Length &amp;lt;= &lt;span style=&quot;color: #b5cea8;&quot;&gt;3&lt;/span&gt;&lt;/div&gt;" style="rhombus;whiteSpace=wrap;html=1;" vertex="1" parent="1">
          <mxGeometry x="530" y="350" width="235" height="110" as="geometry" />
        </mxCell>
        <mxCell id="bVqmNA81sOdPXcJcWzYU-18" style="edgeStyle=orthogonalEdgeStyle;rounded=0;orthogonalLoop=1;jettySize=auto;html=1;exitX=1;exitY=0.5;exitDx=0;exitDy=0;entryX=0;entryY=0.5;entryDx=0;entryDy=0;" edge="1" parent="1" source="bVqmNA81sOdPXcJcWzYU-11" target="bVqmNA81sOdPXcJcWzYU-9">
          <mxGeometry relative="1" as="geometry" />
        </mxCell>
        <mxCell id="bVqmNA81sOdPXcJcWzYU-11" value="&lt;font face=&quot;Consolas, Courier New, monospace&quot; color=&quot;#9cdcfe&quot;&gt;&lt;span style=&quot;font-size: 14px; white-space: pre; background-color: rgb(30, 30, 30);&quot;&gt;redlineArray [m]&lt;/span&gt;&lt;/font&gt;&lt;div&gt;&lt;font face=&quot;Consolas, Courier New, monospace&quot; color=&quot;#9cdcfe&quot;&gt;&lt;span style=&quot;font-size: 14px; white-space: pre; background-color: rgb(30, 30, 30);&quot;&gt;j=0&lt;/span&gt;&lt;/font&gt;&lt;/div&gt;" style="shape=parallelogram;perimeter=parallelogramPerimeter;whiteSpace=wrap;html=1;fixedSize=1;" vertex="1" parent="1">
          <mxGeometry x="280" y="245" width="170" height="70" as="geometry" />
        </mxCell>
        <mxCell id="bVqmNA81sOdPXcJcWzYU-31" style="edgeStyle=orthogonalEdgeStyle;rounded=0;orthogonalLoop=1;jettySize=auto;html=1;exitX=0;exitY=0.5;exitDx=0;exitDy=0;" edge="1" parent="1" source="bVqmNA81sOdPXcJcWzYU-12">
          <mxGeometry relative="1" as="geometry">
            <mxPoint x="580" y="280" as="targetPoint" />
            <Array as="points">
              <mxPoint x="508" y="550" />
              <mxPoint x="508" y="280" />
            </Array>
          </mxGeometry>
        </mxCell>
        <mxCell id="bVqmNA81sOdPXcJcWzYU-12" value="&lt;div&gt;&lt;font face=&quot;Consolas, Courier New, monospace&quot; color=&quot;#9cdcfe&quot;&gt;&lt;span style=&quot;font-size: 14px; white-space: pre; background-color: rgb(30, 30, 30);&quot;&gt;redlineArray [j]=newArray[i]&lt;/span&gt;&lt;/font&gt;&lt;div&gt;&lt;br&gt;&lt;/div&gt;&lt;/div&gt;j=j+1" style="rounded=0;whiteSpace=wrap;html=1;" vertex="1" parent="1">
          <mxGeometry x="527.5" y="515" width="240" height="70" as="geometry" />
        </mxCell>
        <mxCell id="bVqmNA81sOdPXcJcWzYU-36" style="edgeStyle=orthogonalEdgeStyle;rounded=0;orthogonalLoop=1;jettySize=auto;html=1;exitX=0;exitY=0.5;exitDx=0;exitDy=0;" edge="1" parent="1" source="bVqmNA81sOdPXcJcWzYU-14" target="bVqmNA81sOdPXcJcWzYU-35">
          <mxGeometry relative="1" as="geometry" />
        </mxCell>
        <mxCell id="bVqmNA81sOdPXcJcWzYU-14" value="&lt;div&gt;newArray&lt;/div&gt;redlineArray&lt;div&gt;&lt;br&gt;&lt;/div&gt;" style="shape=document;whiteSpace=wrap;html=1;boundedLbl=1;" vertex="1" parent="1">
          <mxGeometry x="354" y="650" width="120" height="80" as="geometry" />
        </mxCell>
        <mxCell id="bVqmNA81sOdPXcJcWzYU-16" style="edgeStyle=orthogonalEdgeStyle;rounded=0;orthogonalLoop=1;jettySize=auto;html=1;exitX=0.5;exitY=1;exitDx=0;exitDy=0;entryX=0.5;entryY=0;entryDx=0;entryDy=0;" edge="1" parent="1" source="bVqmNA81sOdPXcJcWzYU-3" target="bVqmNA81sOdPXcJcWzYU-7">
          <mxGeometry relative="1" as="geometry" />
        </mxCell>
        <mxCell id="bVqmNA81sOdPXcJcWzYU-19" value="NO" style="text;html=1;align=center;verticalAlign=middle;resizable=0;points=[];autosize=1;strokeColor=none;fillColor=none;" vertex="1" parent="1">
          <mxGeometry x="240" y="248" width="40" height="30" as="geometry" />
        </mxCell>
        <mxCell id="bVqmNA81sOdPXcJcWzYU-24" value="NO" style="text;html=1;align=center;verticalAlign=middle;resizable=0;points=[];autosize=1;strokeColor=none;fillColor=none;" vertex="1" parent="1">
          <mxGeometry x="725" y="248" width="40" height="30" as="geometry" />
        </mxCell>
        <mxCell id="bVqmNA81sOdPXcJcWzYU-25" value="NO" style="text;html=1;align=center;verticalAlign=middle;resizable=0;points=[];autosize=1;strokeColor=none;fillColor=none;" vertex="1" parent="1">
          <mxGeometry x="30" y="330" width="40" height="30" as="geometry" />
        </mxCell>
        <mxCell id="bVqmNA81sOdPXcJcWzYU-26" value="YES" style="text;html=1;align=center;verticalAlign=middle;resizable=0;points=[];autosize=1;strokeColor=none;fillColor=none;" vertex="1" parent="1">
          <mxGeometry x="180" y="480" width="50" height="30" as="geometry" />
        </mxCell>
        <mxCell id="bVqmNA81sOdPXcJcWzYU-29" value="YES" style="text;html=1;align=center;verticalAlign=middle;resizable=0;points=[];autosize=1;strokeColor=none;fillColor=none;" vertex="1" parent="1">
          <mxGeometry x="655" y="320" width="50" height="30" as="geometry" />
        </mxCell>
        <mxCell id="bVqmNA81sOdPXcJcWzYU-33" value="YES" style="text;html=1;align=center;verticalAlign=middle;resizable=0;points=[];autosize=1;strokeColor=none;fillColor=none;" vertex="1" parent="1">
          <mxGeometry x="655" y="470" width="50" height="30" as="geometry" />
        </mxCell>
        <mxCell id="bVqmNA81sOdPXcJcWzYU-34" value="NO" style="text;html=1;align=center;verticalAlign=middle;resizable=0;points=[];autosize=1;strokeColor=none;fillColor=none;" vertex="1" parent="1">
          <mxGeometry x="540" y="330" width="40" height="30" as="geometry" />
        </mxCell>
        <mxCell id="bVqmNA81sOdPXcJcWzYU-35" value="Конец" style="ellipse;whiteSpace=wrap;html=1;" vertex="1" parent="1">
          <mxGeometry x="100" y="650" width="120" height="80" as="geometry" />
        </mxCell>
      </root>
    </mxGraphModel>
  </diagram>
</mxfile>
